<?xml version="1.0" encoding="UTF-8"?>
<svg width="169px" height="179px" viewBox="0 0 169 179" version="1.1" xmlns="http://www.w3.org/2000/svg" xmlns:xlink="http://www.w3.org/1999/xlink">
    <title>RetainPDF-logo</title>
    <g id="页面-1" stroke="none" stroke-width="1" fill="none" fill-rule="evenodd">
        <g id="RetainPDF-logo" transform="translate(1, 1)" fill="#262626" fill-rule="nonzero" stroke="#262626" stroke-width="0.3">
            <path d="M126.765722,49.0535908 C120.621823,49.0535908 118.493128,43.4211326 118.493128,39.9008462 L118.493128,0 L14.136067,0 C4.85648468,0 0,7.83423736 0,14.4267737 L0,162.662834 C0,171.879583 7.92843431,177 14.6586808,177 L150.028411,177 C159.307994,177 166,170.356259 166,161.945975 L166,47.8502929 L126.765722,48.9895856 L126.765722,49.0535908 Z M154.094602,158.899327 C154.094602,164.95422 148.84297,168.295292 144.866006,168.295292 L19.1582585,168.295292 C13.103586,168.295292 10.40129,162.62443 10.40129,159.155348 L10.40129,18.855934 C10.40129,13.5435018 14.3145205,9.52397483 18.9415649,9.52397483 L108.907625,9.52397483 L108.907625,42.025819 C108.907625,51.6650033 117.18022,56.3373834 125.197881,56.3373834 L154.094602,56.3373834 L154.094602,158.886526 L154.094602,158.899327 Z" id="形状"></path>
            <path d="M131.588979,42 L167,42 L125,1 L125,33.0980149 C125,38.2993176 127.757001,42 131.588979,42 Z" id="路径"></path>
            <path d="M88.6688103,112.77034 L112,112.77034 L88.7845659,84.6241922 C98.8681672,80.3754764 104.282958,70.9976802 104.282958,61.619884 C104.282958,49.2437448 94.8553055,36 77.6334405,36 L40,36 L40,113 L58.5594855,113 L58.5594855,86.6018227 L70.3536977,86.6018227 L89.7749196,112.795857 L88.6688103,112.77034 L88.6688103,112.77034 Z M58.5594855,49.2947804 L74.829582,49.2947804 C83.2926045,49.2947804 86.8810289,56.6183927 86.8810289,62.0664457 C86.8810289,68.4586578 81.8135048,74.5318973 75.1768489,74.5318973 L58.5594855,74.5318973 L58.5594855,49.2947804 L58.5594855,49.2947804 Z" id="形状"></path>
            <polygon id="路径" points="137 129 30 129 30 136 137 136"></polygon>
            <polygon id="路径" points="91 148 30 148 30 154 91 154"></polygon>
        </g>
    </g>
</svg>