<svg xmlns="http://www.w3.org/2000/svg" width="600" height="230" aria-label="PaddleOCR JSON split flow diagram" role="img" viewBox="0 0 600 230"><defs><linearGradient id="grad" x1="0%" x2="100%" y1="0%" y2="0%"><stop offset="0%" stop-color="#266dd3"/><stop offset="100%" stop-color="#36c0a4"/></linearGradient></defs><rect width="600" height="230" fill="#fdfdfd" stroke="#ccc" stroke-width="2" rx="18"/><text x="30" y="40" fill="#1a1a1a" font-family="JetBrains Mono" font-size="20">PaddleOCR JSON Split</text><line x1="40" x2="560" y1="70" y2="70" stroke="url(#grad)" stroke-linecap="round" stroke-width="4"/><circle cx="140" cy="110" r="30" fill="#266dd3" opacity=".9"/><circle cx="300" cy="110" r="30" fill="#36c0a4" opacity=".9"/><circle cx="460" cy="110" r="30" fill="#f4b740" opacity=".95"/><text x="130" y="115" fill="#fff" font-size="12">layout</text><text x="130" y="130" fill="#fff" font-size="10">raw boxes</text><text x="280" y="115" fill="#fff" font-size="12">document</text><text x="280" y="130" fill="#fff" font-size="10">normalized</text><text x="440" y="115" fill="#fff" font-size="12">report</text><text x="440" y="130" fill="#fff" font-size="10">summary</text><path fill="none" stroke="#1a1a1a" stroke-width="2" d="M 170 110 Q 220 90 270 110"/><path fill="none" stroke="#1a1a1a" stroke-width="2" d="M 330 110 Q 380 130 430 110"/><text x="240" y="90" fill="#1a1a1a" font-size="10">normalize</text><text x="370" y="135" fill="#1a1a1a" font-size="10">summarize</text><rect width="550" height="60" x="25" y="150" fill="#f8f8f8" stroke="#d5d5d5" stroke-width="1" rx="12"/><text x="45" y="175" fill="#444" font-size="12"><tspan font-weight="bold">Shared helper</tspan> ensures each path is validated</text><text x="45" y="190" fill="#444" font-size="10">Regressions gate: fixtures → registry → normalization report</text></svg>